Coordinates
version=1
nRows=26
nColumns=22
inDegrees=yes

Units are S.I. units (second, meters, Newtons, ...)
If the header above contains a line with 'inDegrees', this indicates whether rotational values are in degrees (yes) or radians (no).

endheader
time	pelvis_tilt	pelvis_list	pelvis_rotation	pelvis_tx	pelvis_ty	pelvis_tz	hip_flexion_r	hip_adduction_r	hip_rotation_r	knee_angle_r	ankle_angle_r	subtalar_angle_r	hip_flexion_l	hip_adduction_l	hip_rotation_l	knee_angle_l	ankle_angle_l	subtalar_angle_l	lumbar_extension	lumbar_bending	lumbar_rotation
      6.01000000	     -6.28062714	     -2.95209149	    302.09943110	     -0.30471632	      1.00915821	      0.50172095	     15.41568970	      7.60806291	      5.34842253	    -17.01781298	      6.52332936	      9.25351604	      7.34579648	     -4.91064237	      7.00832398	    -48.23346198	      8.07854988	     -1.05173338	    -11.42039005	      8.17925689	      4.75713449
      6.02000000	     -6.47324443	     -3.13145753	    302.80050407	     -0.30432225	      1.00984000	      0.50651785	     14.89104094	      7.92321756	      4.95072860	    -16.61912003	      6.69586087	      9.07851237	      8.32692680	     -5.89938471	      5.39751165	    -49.49326126	      8.25259729	     -1.95435344	    -11.50064002	      8.41104548	      4.97401758
      6.03000000	     -6.60949246	     -3.32017353	    303.50106841	     -0.30378054	      1.01057042	      0.51120772	     14.32702914	      8.19160874	      4.55697228	    -16.21004867	      6.89524933	      8.91821344	      9.20835650	     -6.79118190	      3.95406016	    -50.55586552	      8.55201766	     -2.88882970	    -11.61265227	      8.60812241	      5.16531573
      6.04000000	     -6.69255554	     -3.50445356	    304.20150286	     -0.30305567	      1.01134030	      0.51575535	     13.74160048	      8.40312691	      4.14003124	    -15.79678009	      7.08414281	      8.79229921	     10.00486631	     -7.54599549	      2.70463848	    -51.41846549	      8.91816661	     -3.71711525	    -11.74299789	      8.77208465	      5.35033043
      6.05000000	     -6.72081127	     -3.67274101	    304.90966854	     -0.30212330	      1.01211664	      0.52013732	     13.14359919	      8.54926745	      3.71746253	    -15.38752277	      7.31677175	      8.70145048	     10.73305793	     -8.12528013	      1.67955564	    -52.09311720	      9.32565081	     -4.37853543	    -11.87693150	      8.89822704	      5.50433853
      6.06000000	     -6.71640259	     -3.80913673	    305.62394882	     -0.30100909	      1.01286408	      0.52432399	     12.55815267	      8.63869568	      3.28787804	    -14.97219513	      7.54993393	      8.67335175	     11.42996659	     -8.52618421	      0.88462853	    -52.59038224	      9.75263689	     -4.67537619	    -11.99589266	      8.99856203	      5.63931432
      6.07000000	     -6.66247579	     -3.91612739	    306.32990408	     -0.29974728	      1.01358527	      0.52833088	     11.99254157	      8.66397222	      2.84837504	    -14.59678601	      7.82523781	      8.66095065	     12.08256694	     -8.74488084	      0.27014829	    -52.91640415	     10.10486183	     -4.85704965	    -12.11242994	      9.05169619	      5.75860158
      6.08000000	     -6.58582618	     -3.99400242	    307.02625339	     -0.29838099	      1.01425370	      0.53216424	     11.45056929	      8.65025616	      2.41584298	    -14.23549505	      8.11741790	      8.67797486	     12.71419039	     -8.81711196	     -0.17847458	    -53.08684111	     10.40780796	     -4.82165578	    -12.22150151	      9.07842871	      5.87572626
      6.09000000	     -6.49182695	     -4.05215675	    307.71675401	     -0.29692083	      1.01487151	      0.53585722	     10.92132305	      8.60938266	      1.99676070	    -13.88012096	      8.41984000	      8.74545309	     13.32280752	     -8.77456131	     -0.49215655	    -53.11425425	     10.65629040	     -4.41642205	    -12.32147642	      9.08607509	      5.98694033
      6.10000000	     -6.39424397	     -4.09226157	    308.38769703	     -0.29542703	      1.01540980	      0.53944499	     10.42712192	      8.55946092	      1.57945751	    -13.55856193	      8.72001399	      8.81308123	     13.91677614	     -8.66581697	     -0.73473997	    -53.01470744	     10.88038193	     -3.83601692	    -12.41092535	      9.07885150	      6.11369895
      6.11000000	     -6.29012866	     -4.12701452	    309.05452360	     -0.29387988	      1.01589381	      0.54293320	      9.94705281	      8.50273730	      1.14702198	    -13.25489565	      9.00194675	      8.87108095	     14.48438053	     -8.51279923	     -0.91939506	    -52.79468294	     11.06295764	     -3.19581778	    -12.50098005	      9.06352573	      6.24740756
      6.12000000	     -6.19643355	     -4.16121029	    309.68183158	     -0.29234484	      1.01630241	      0.54642849	      9.48306256	      8.46933129	      0.76140494	    -12.96837978	      9.28639995	      8.91950473	     15.02489532	     -8.38834916	     -1.15713917	    -52.46892816	     11.25920438	     -2.45959728	    -12.58194275	      9.04839415	      6.39502738
      6.13000000	     -6.09825681	     -4.20405662	    310.31489982	     -0.29078080	      1.01667043	      0.54986709	      9.02714632	      8.44039527	      0.31433251	    -12.70494392	      9.53170076	      8.93579851	     15.53257896	     -8.27792258	     -1.40234498	    -52.04475725	     11.42417576	     -1.88033133	    -12.67402717	      9.03093508	      6.52838376
      6.14000000	     -6.02049810	     -4.25894657	    310.90034060	     -0.28925538	      1.01696952	      0.55334942	      8.57655948	      8.45533110	     -0.05807652	    -12.44549276	      9.77030823	      8.92399225	     16.01333126	     -8.24131215	     -1.73612527	    -51.54317732	     11.62771995	     -1.31354299	    -12.76165048	      9.02496594	      6.72241856
      6.15000000	     -5.94706886	     -4.32277188	    311.47671727	     -0.28771943	      1.01722612	      0.55682979	      8.13319605	      8.48720100	     -0.46411086	    -12.20141770	      9.96959946	      8.87325898	     16.46703179	     -8.25760531	     -2.13913190	    -50.96542588	     11.81158116	     -0.97448798	    -12.85106402	      9.02192015	      6.89889725
      6.16000000	     -5.88780246	     -4.39198441	    312.04733414	     -0.28618261	      1.01742271	      0.56030779	      7.69463616	      8.54391760	     -0.86799304	    -11.94975653	     10.15722361	      8.79691787	     16.91097319	     -8.32543993	     -2.59110032	    -50.32859768	     11.99324269	     -0.82877207	    -12.93213306	      9.02532411	      7.06644127
      6.17000000	     -5.83463214	     -4.47181248	    312.58354371	     -0.28466231	      1.01758575	      0.56380102	      7.26117199	      8.62444438	     -1.25728965	    -11.71215463	     10.31569553	      8.68161503	     17.32600110	     -8.45059413	     -3.13060492	    -49.63379482	     12.17008031	     -0.79169924	    -13.02187895	      9.03063540	      7.26228205
      6.18000000	     -5.77498034	     -4.56148200	    313.10622739	     -0.28311904	      1.01773779	      0.56728716	      6.81844322	      8.71500156	     -1.64498176	    -11.47705080	     10.43565792	      8.51276825	     17.70802648	     -8.60526971	     -3.72557972	    -48.88335738	     12.31222137	     -0.89349874	    -13.12364345	      9.03239064	      7.44414727
      6.19000000	     -5.72693022	     -4.64692145	    313.62498708	     -0.28154744	      1.01783081	      0.57072414	      6.39771318	      8.81595491	     -2.03896141	    -11.25441381	     10.55682426	      8.33281362	     18.09186643	     -8.77107077	     -4.32860040	    -48.09198693	     12.43619058	     -1.09990896	    -13.21326623	      9.03681361	      7.62431616
      6.20000000	     -5.67624263	     -4.73176096	    314.14864089	     -0.27990858	      1.01789452	      0.57408292	      5.98256380	      8.91561529	     -2.44405207	    -11.03897905	     10.67350314	      8.13330779	     18.46323184	     -8.92159372	     -4.91506718	    -47.25656354	     12.52846794	     -1.36802176	    -13.30432691	      9.04441684	      7.78917312
      6.21000000	     -5.62145353	     -4.80973938	    314.67496606	     -0.27820830	      1.01793030	      0.57734957	      5.58453242	      9.00739574	     -2.85476922	    -10.84487920	     10.76962815	      7.91726761	     18.82457366	     -9.04410214	     -5.48150771	    -46.37509029	     12.57650547	     -1.66022695	    -13.39459460	      9.04869998	      7.91956632
      6.22000000	     -5.56801435	     -4.88048548	    315.21356332	     -0.27643261	      1.01792308	      0.58051006	      5.20404455	      9.09365830	     -3.28162917	    -10.66467310	     10.87515905	      7.70947410	     19.18475454	     -9.12449652	     -5.98623721	    -45.45336607	     12.60216570	     -1.89849969	    -13.47851557	      9.05445237	      8.02859227
      6.23000000	     -5.50709305	     -4.94731810	    315.75936988	     -0.27456060	      1.01789514	      0.58355673	      4.82997367	      9.16898188	     -3.71601294	    -10.49712930	     10.97825142	      7.48785330	     19.52683272	     -9.15365817	     -6.43145652	    -44.48452877	     12.60339899	     -2.08549966	    -13.56668542	      9.06166344	      8.12199014
      6.24000000	     -5.44725270	     -5.00032848	    316.31425979	     -0.27259808	      1.01782083	      0.58650399	      4.47822534	      9.23249951	     -4.16594117	    -10.34655175	     11.09994456	      7.29486325	     19.86452799	     -9.12323730	     -6.79302307	    -43.47230951	     12.58753411	     -2.16859070	    -13.64150292	      9.06291384	      8.20591377
      6.25000000	     -5.36289793	     -5.05880300	    316.87631051	     -0.27052215	      1.01776051	      0.58935600	      4.10174612	      9.28187434	     -4.60792234	    -10.19206271	     11.21510541	      7.05055677	     20.15855665	     -9.03964792	     -7.10640478	    -42.41697376	     12.54845922	     -2.20197320	    -13.74150217	      9.06184741	      8.24858260
      6.26000000	     -5.28490567	     -5.09408327	    317.43240743	     -0.26837747	      1.01764535	      0.59215544	      3.76560649	      9.31742016	     -5.06605428	    -10.07259267	     11.32568630	      6.85985718	     20.45615878	     -8.91106862	     -7.37577509	    -41.33009330	     12.50069524	     -2.15874093	    -13.81497431	      9.04505095	      8.28285268
